<?xml version="1.0" encoding="UTF-8"?>
<svg width="81px" height="20px" viewBox="0 0 81 20" version="1.1" xmlns="http://www.w3.org/2000/svg" xmlns:xlink="http://www.w3.org/1999/xlink">
    <title>banner-2136190</title>
    <g id="é¡µé¢-1" stroke="none" stroke-width="1" fill="none" fill-rule="evenodd">
        <g id="banner-2136190" transform="translate(0.1438, -0.0008)">
            <path d="M40.264425,12.9424028 C36.0036902,12.8468023 31.5733243,12.1011185 27.4722424,11.4127949 C26.3147594,11.2215939 25.2071679,11.1068733 24.1095548,10.8869921 C21.1859124,10.294269 18.3420965,10.7053512 15.6978466,11.6709162 C14.3707325,11.5466356 13.2431844,12.2827594 12.2553325,12.8085621 C12.6744212,12.2445192 13.3529457,11.9672778 14.0214919,11.6709162 C13.5325551,11.5179554 12.9238787,11.9863979 12.4149854,12.1106785 C12.5047901,11.4892753 13.2531627,11.5657557 13.6123815,11.240714 C13.2930759,11.0112728 12.9737702,11.5275155 12.4948118,11.4127949 C12.7243127,11.0208328 13.2332061,10.9347924 13.5325551,10.6288708 C13.1932929,10.3707494 12.5846165,10.9634725 12.1655278,11.1546735 C12.2952457,12.0341981 11.6965476,12.4930805 11.8462222,13.2483244 C11.4371118,13.0475634 11.706526,12.6173611 11.6865693,12.2827594 C11.576808,10.0074676 11.3173722,6.92913153 9.84058356,5.99224666 C10.7685656,3.44927342 13.2930759,2.64622924 15.448389,1.45122302 C20.0284294,0.246656753 24.7381878,0.839379838 29.5477291,1.80494486 C32.2718054,2.3498677 35.0757082,2.92347069 37.6401317,3.20071213 C38.278743,3.26763248 38.9872024,3.29631263 39.6856835,3.27719253 L39.6856835,3.22939228 L40.2245118,3.25807243 L40.2544467,3.25807243 C40.9529278,3.27719253 41.6613872,3.24851238 42.2999985,3.18159203 C44.864422,2.90435059 47.6683247,2.3307476 50.3924011,1.78582476 C55.2019424,0.820259738 59.921679,0.237096703 64.4917412,1.43210292 C66.6470543,2.63666919 69.1715646,3.43971337 70.0995466,5.97312656 C68.6327363,6.91957148 68.3733005,9.98834746 68.2535608,12.2636393 C68.2336042,12.598241 68.5030184,13.0284433 68.093908,13.2292043 C68.2435825,12.4644003 67.6448844,12.005518 67.7746024,11.1355534 C67.3555137,10.9443524 66.7568156,10.3516293 66.4075751,10.6097507 C66.7069241,10.9252323 67.2257958,11.0017127 67.4453184,11.3936748 C66.9663599,11.5083954 66.6470543,10.9921527 66.3277486,11.2215939 C66.6869675,11.5561956 67.4353401,11.4701552 67.5251448,12.0915584 C67.0262298,11.9672778 66.4075751,11.4988353 65.9186383,11.6517961 C66.5871845,11.9481577 67.265709,12.2253991 67.6847977,12.789442 C66.6969458,12.2636393 65.5693977,11.5275155 64.2422836,11.6517961 C61.5880554,10.6862311 58.7542178,10.2751489 55.8305754,10.867872 C54.7329622,11.0877532 53.6153925,11.2024738 52.4678878,11.3936748 C48.5464153,12.0533182 44.335572,12.7607619 40.2444684,12.9041626 L40.2444684,12.9424028 L40.264425,12.9424028 Z M68.8323023,17.0723443 C69.7702627,15.1603344 67.8045373,13.9748882 66.6670109,13.2292043 C66.008443,13.3248048 65.0006345,12.3305596 63.6236289,12.005518 C62.8153865,11.814317 62.2765582,11.8334371 61.5381639,11.7473966 C61.7676648,11.9959579 62.2166884,11.9959579 62.4162544,12.2731993 C62.1268837,12.4930805 61.9073611,11.9003574 61.3785111,12.1011185 C61.508229,12.3687998 61.8774262,12.3783599 62.0171224,12.6269212 C61.8474912,12.7129616 61.0592054,11.9672778 60.8197262,12.6269212 C61.2188582,12.6269212 61.5780771,12.6747214 61.7776431,12.8850425 C61.4683158,13.0475634 61.0093139,12.6364812 60.6600734,12.971083 C60.8396828,13.2100842 61.3685328,13.0666835 61.4583375,13.4108453 C61.3186413,13.5351259 60.2609413,12.971083 60.1811149,13.5829262 C60.5602903,13.544686 60.7598564,13.7072068 61.0592054,13.7550071 C60.7997696,13.936648 60.1012885,13.5638061 59.8618092,13.927088 C60.0813319,14.0991689 60.5602903,13.9844483 60.7398998,14.1852093 C60.5802469,14.3859703 60.0713536,14.2138895 59.7819828,14.2712497 C59.9715706,14.4146505 60.2709196,14.4433306 60.5004205,14.5293711 C60.1412017,14.8161726 59.5824168,14.3381701 59.2132196,14.6154115 C59.2231979,14.9882535 59.722113,14.8161726 59.8518309,15.0551738 C59.8318743,15.1794545 59.4526989,14.9786934 59.2132196,15.0551738 C58.9537838,15.1794545 59.4926121,15.1412143 59.6123517,15.1412143 C58.6743914,15.3610954 57.8761272,15.7530575 57.6067131,16.7186225 C58.4748253,17.5407868 59.7021564,17.9231888 60.8895743,18.1143898 C62.4761242,18.3725111 63.6236289,17.3591458 64.9806779,17.0627843 C64.3121317,16.5943418 63.4539978,17.2826654 62.7355601,17.3209056 C63.0448874,17.0436642 63.5238459,16.9576237 63.9329563,16.7951029 C63.5537808,16.5752217 63.4539978,16.8620232 62.9750393,16.7951029 C63.0548657,16.5369815 63.5537808,16.7186225 63.5338242,16.3553406 C63.1446704,16.431821 62.7355601,16.4796212 62.336428,16.5274215 C62.565929,16.3075403 62.9550827,16.2693001 63.294345,16.1736997 C63.064844,15.9538185 62.4262327,16.25018 62.5759073,15.8199778 C61.9273177,15.9729386 60.450529,15.8677781 59.6921781,15.9060183 C59.9715706,16.2597401 60.6900083,16.1354595 60.9694007,16.2597401 C60.6500951,16.5369815 59.62233,16.1928198 59.0435885,16.1736997 C59.2531328,16.5847818 59.6921781,16.7473026 60.3307894,16.6995024 C60.15118,17.005424 59.6921781,16.9193835 60.4106158,16.9576237 C59.6323083,17.196625 58.7841527,16.7568627 58.4049772,16.2597401 C59.3529159,15.3993356 61.3984677,15.7339374 62.7355601,15.2941751 C64.5815459,15.8677781 67.8544288,19.4241166 69.6305665,16.6039019 C69.6704797,13.735887 67.3954269,12.789442 65.37981,11.8812373 C66.2179873,12.6364812 69.1116948,13.8601676 69.4709136,15.6383369 C69.5906533,16.2214999 69.5407617,17.1297046 68.8323023,17.0341041 L68.8323023,17.0723443 Z M66.1880524,13.8410475 C65.4496581,13.363045 64.6813289,12.9137227 63.8631082,12.5313207 C64.8709166,12.7225217 65.9186383,12.8468023 66.1880524,13.8410475 Z M65.8687468,14.1947694 C65.2500921,14.1852093 64.7012855,13.3821651 63.8631082,13.3248048 C64.4917412,12.971083 65.5993326,13.5829262 65.8687468,14.1947694 Z M65.5494411,14.7205721 C65.1004176,14.2234495 64.1724355,14.2425696 63.7832817,13.6689666 C64.4119147,13.9175279 65.6691807,13.936648 65.5494411,14.7205721 Z M65.5494411,15.5044962 C64.9906562,14.8830929 63.9329563,14.8257326 63.3841497,14.2808098 C64.2323053,14.5484912 65.3398968,14.5389311 65.5494411,15.5044962 Z M63.5438025,15.0647339 C64.0327393,15.1592838 64.9407647,15.3904059 65.2301355,16.0207389 C64.8709166,15.9051778 63.79326,15.3063615 63.5438025,15.0647339 Z M59.6123517,17.5121066 C58.9537838,17.3209056 57.9160404,17.1010245 58.0058451,16.3744607 C58.0258018,16.3075403 58.0756933,16.2693001 58.165498,16.2884202 C58.3850206,16.9767438 59.2032413,17.0245441 59.6123517,17.5121066 Z M62.4960808,17.8544071 C62.5459724,18.5092939 60.1112668,19.1357073 60.250963,17.5981471 C60.6401168,18.5092939 62.436211,17.085627 62.4960808,17.8544071 Z M78.7607124,14.3668502 C78.1021445,14.5006909 78.0422747,13.3917252 76.9147266,13.7550071 C77.0743794,13.4586455 77.7129907,13.6880867 77.95247,13.4968857 C77.6032294,13.3821651 77.3338153,13.1814041 76.8349002,13.2387644 C77.0743794,12.7225217 78.0821879,13.171844 78.3615803,13.0666835 C78.1919492,12.4739604 77.4834898,12.8181222 77.0843577,12.6269212 C77.3936851,12.2827594 77.7329473,12.4930805 78.2817539,12.4548403 C78.1819709,11.9768378 77.3338153,12.1680388 77.0843577,12.1011185 C77.2040973,11.8812373 77.822752,11.7473966 78.0422747,11.9290376 C78.2218841,11.6709162 77.6830558,11.4510351 77.323837,11.4892753 C77.5134247,11.1259934 78.0023615,11.6039959 78.2817539,11.3171944 C78.1620143,11.0112728 77.822752,10.9347924 77.4036634,10.9634725 C77.5134247,10.7053512 77.8526869,10.6957911 78.2019275,10.7053512 C78.0322964,10.4567899 77.6730775,10.4089896 77.2440105,10.4472298 C77.3936851,9.86406681 78.0422747,10.3611894 78.2019275,9.83538666 C77.9624483,9.67286582 77.623186,9.50078492 77.323837,9.66330577 C77.4834898,9.40518442 77.7728605,9.28090378 78.2019275,9.30958392 C78.0123398,9.15662313 77.4834898,9.04190253 77.2440105,9.22354348 C77.194119,8.73598094 77.8427086,9.00366233 78.0422747,8.78378119 C77.9624483,8.55433999 77.7129907,8.49697969 77.4036634,8.52565984 C77.6431426,8.2101782 78.1620143,8.27709855 78.4414067,8.4396194 C78.3316454,7.94249681 77.8327303,7.88513651 77.2440105,7.91381666 C77.4136417,7.56965487 77.9724266,7.59833502 78.2817539,7.65569532 C78.1021445,7.35933377 77.6431426,7.36889382 77.2440105,7.30197347 C77.5134247,6.95781168 78.0023615,7.10121243 78.4414067,7.12989258 C78.2418407,6.70925039 77.5732945,6.62320994 77.0743794,6.77617074 C77.3038804,6.29816825 77.9424916,6.53716949 78.4414067,6.51804939 C78.2617973,6.12608735 77.7129907,6.14520745 77.1542058,6.16432755 C77.293902,5.82016576 77.8526869,5.93488636 78.2717756,5.90620621 C78.1919492,5.46644392 77.5433596,5.64808487 77.1542058,5.55248437 C77.3537719,5.03624168 78.1719926,5.42820372 78.6010596,5.46644392 C78.3416237,5.11272208 77.822752,5.02668163 77.4834898,4.76856029 C77.9624483,4.4817588 78.3915152,4.99800148 78.7706907,5.12228213 C78.6110379,4.2331975 77.3637502,4.11847691 76.4457464,4.33835805 C76.8448785,3.49707367 77.9424916,4.2140774 78.6908643,4.2523176 C78.0322964,3.31543273 75.8769832,3.69783472 75.5676559,4.69207989 C76.0266578,5.68632507 76.2461804,6.92913153 76.2860936,8.00941716 C76.3559417,9.52946507 76.4158115,12.3305596 75.8071351,13.7741272 C75.4678729,14.5771713 74.3702597,15.0551738 74.6895653,16.7473026 C74.9290446,18.0187893 77.5333813,18.8983138 77.7329473,16.7473026 C77.4535549,18.0952697 75.3381549,18.0283493 74.9290446,16.8333431 C74.6995436,15.1029741 75.4878295,14.4720108 76.5355511,14.127849 C78.6908643,13.9940083 80.0978048,16.1450195 78.9403218,17.970989 C78.3116888,18.9652342 77.0444445,19.1946754 75.8171134,19.2807158 C73.5221041,19.4336766 71.2071381,17.7128677 69.5706966,17.5312267 C70.2392429,18.0665895 71.2071381,18.2769106 72.1351201,18.6688726 C73.552039,19.2615957 75.8470483,19.8256387 77.822752,19.1946754 C78.0223181,18.8600736 78.4613633,18.7835932 78.780669,18.5828322 C78.7407558,18.2769106 78.8505171,18.1335099 79.0201482,18.0570295 C80.0678699,17.2444252 79.3793671,15.2941751 78.780669,14.3859703 L78.7607124,14.3668502 Z M79.0539713,16.2023798 C78.7616222,16.4938447 77.7018567,16.6570651 78.176924,17.1583848 C78.5971758,16.9368714 78.9626122,16.6687237 79.0539713,16.2023798 Z M76.1164625,15.5826243 C76.1164625,16.2461958 76.5945894,16.356791 77.1142926,16.4010291 L77.1142926,15.5826243 C76.8232588,15.2066005 76.6985301,15.7374577 76.1164625,15.5826243 Z M75.637504,15.3324153 C75.3281766,16.049419 76.1763323,16.25018 76.5155945,16.5561016 C76.0865276,16.8811433 75.7672219,16.3266604 75.4778512,16.2023798 C75.6674389,16.6612622 75.9767662,16.9958639 76.5155945,17.0723443 C76.2262238,17.3304657 75.7472653,17.0436642 75.4778512,16.9863039 C75.9867445,17.9040687 77.8327303,17.2731054 77.1641841,16.0207389 C76.6253558,16.2214999 76.6852257,16.0207389 76.0466144,16.0207389 C75.936853,15.7626175 75.6275257,15.7243773 75.6474823,15.3228552 L75.637504,15.3324153 Z M78.9501993,15.0742939 C78.5386364,15.466256 78.2299642,15.9155783 77.9624483,16.3840207 C78.9501993,16.2979803 78.9913556,15.7052572 78.9501993,15.0742939 Z M76.4110959,14.902213 C75.6925373,15.3802155 76.8661831,15.56726 76.9859429,15.858218 C77.2494144,15.7958699 77.1536066,15.3802155 77.1775585,15.0892575 C76.8661831,15.0684748 76.4350479,15.1723884 76.4110959,14.902213 Z M77.2834234,14.4624507 C76.8349002,14.519811 76.9694572,15.1412143 76.8349002,15.5140562 C77.1152272,15.6192168 77.4740458,15.6478969 77.8216514,15.6861371 C77.776799,15.3228552 77.3955543,15.4471359 77.8216514,15.2463748 C77.8889298,15.0073736 77.631029,15.0742939 77.5525374,14.9882535 C77.5749636,14.8639728 77.8216514,14.9595733 77.8216514,14.8161726 C77.8889298,14.4624507 77.3731281,14.6727718 77.2834234,14.4624507 Z M69.3012825,8.25797845 C69.8999806,8.08589756 70.8578975,7.91381666 71.2270947,8.43005935 C71.0275287,8.92718193 70.1993296,8.29621865 69.6205882,8.60214024 C69.9598504,8.98454223 71.0075721,8.60214024 71.2270947,9.12794298 C70.7680928,9.31914397 69.3811089,8.72642089 68.9021504,9.48166482 C69.450957,9.30958392 70.3689608,9.35738417 70.7481362,9.65374572 C70.3789391,10.0074676 69.55074,9.42430452 68.9819769,9.82582661 C69.3411957,10.2464688 70.2292646,10.093508 70.6683098,10.4376698 C70.1893513,10.6384308 69.5906533,10.2082286 68.9021504,10.3516293 C69.2913042,10.8296318 70.1993296,10.7435914 70.7481362,11.049513 C70.1893513,11.3936748 69.0817599,10.3803095 68.6626712,11.1355534 C69.4409787,11.0781931 69.9698287,11.2885142 70.508657,11.4892753 C70.2392429,11.7951969 69.1615863,11.0686331 68.6626712,11.5753157 C69.2813259,11.7473966 69.9598504,11.8429971 70.508657,12.1011185 C70.0197202,12.39748 69.3811089,11.7665167 68.5828448,12.1011185 C68.9320853,12.3783599 70.2093079,12.1202386 70.508657,12.7129616 C69.8201542,12.779882 69.1815429,12.3114395 68.6626712,12.7129616 C68.952042,13.1814041 70.2292646,12.5791209 70.4288306,13.1527239 C69.8001976,13.3821651 69.351174,13.0953636 68.822324,13.2387644 C69.1116948,13.8219274 70.0596334,13.2100842 70.508657,13.6785267 C70.2392429,13.8792877 69.6305665,13.7072068 69.2314344,13.7645671 C69.4409787,14.2903698 70.508657,13.8888478 70.8379409,14.2903698 C70.6184183,14.5293711 69.7403278,14.2712497 69.6405448,14.3764103 C69.780241,14.9213331 70.7182013,14.6058515 71.0873985,14.902213 C70.8778542,15.3897756 70.2791561,14.6632118 69.9698287,14.9882535 C70.0396768,15.466256 70.6982447,15.3037351 70.9277457,15.6000967 C70.6683098,15.9633786 70.2791561,15.2654949 70.0496551,15.6000967 C69.9299155,16.1832597 71.1871815,15.8295379 71.3268777,16.5656617 C70.9876155,16.8429031 70.5186353,16.0589791 70.1294815,16.3935808 C70.2691778,16.8907034 71.1672249,16.5369815 71.2470513,17.0914644 C70.6683098,17.2635453 70.1095249,16.5369815 69.9598504,17.2635453 C70.6383749,17.397386 71.0674419,17.7989081 71.8058362,17.8753885 C73.6917352,18.9652342 77.2440105,19.6535578 78.7008426,17.6172672 C78.5012765,17.6077071 78.451385,17.7511079 78.3017105,17.7893481 C78.2418407,17.6268272 78.6609294,17.2539853 78.780669,17.005424 C78.3216671,16.9767438 77.7628822,17.588587 77.5832728,18.1430699 C75.737287,18.8696337 74.2006286,17.8084682 74.3004116,15.9538185 C74.3702597,14.6632118 75.4279597,13.735887 75.7472653,12.7225217 C75.8270917,11.7091564 75.9268747,10.294269 75.9069181,9.05146258 C73.8214531,8.94630203 71.2969428,7.17769283 69.3312174,8.2675385 L69.3012825,8.25797845 Z M69.7004146,5.55248437 C69.1116948,5.09360198 68.4431486,4.71119999 67.8544288,4.24275755 C68.6127797,4.51999899 69.351174,4.82592059 69.7004146,5.55248437 Z M69.3012825,6.07828711 C68.9819769,5.64808487 68.5628882,5.31348312 68.1837127,4.94064118 C68.7524759,5.05536178 69.6405448,5.53336427 69.3012825,6.07828711 Z M69.1416297,6.59673885 C68.6028014,6.440476 68.4331703,5.84667715 67.9442335,5.6487442 C68.3633222,5.58623906 69.1216731,5.88834725 69.1416297,6.59673885 Z M68.9819769,7.21593303 C68.6526929,7.16929864 68.1537778,6.4814414 67.694776,6.25992805 C68.2635391,6.39983122 68.9420636,6.37651402 68.9819769,7.21593303 Z M68.5828448,7.65569532 C68.2535608,7.13945263 67.4952099,7.09165238 67.0561647,6.69013029 C67.7646241,6.73793054 68.6626712,7.02473203 68.5828448,7.65569532 Z M68.5030184,8.0954576 C68.1737344,8.3822591 68.2336042,9.08014273 67.8644071,9.31914397 C68.1437995,9.74934621 68.1837127,10.6479909 67.6249278,10.9825926 C67.5850146,10.4376698 66.9663599,10.5332703 66.7468373,10.1986686 C67.0561647,10.0170276 67.4552967,10.3803095 67.8644071,10.3707494 C67.7346892,9.74934621 66.9464033,9.89274696 66.6670109,9.67286582 C66.9863165,9.39562437 67.4453184,9.84494671 67.6249278,9.67286582 C67.4952099,9.34782412 67.1060562,9.30002387 66.6670109,9.31914397 C66.7767722,8.72642089 67.2557307,9.39562437 67.7047543,9.23310353 C67.6548627,8.69774074 66.8466203,9.00366233 66.7468373,8.53521989 C67.2257958,8.4204993 67.7646241,8.96542213 67.9442335,8.62126034 C67.7646241,8.37269905 67.5351231,8.20061815 67.066143,8.2675385 C67.3355571,7.78953601 67.9641901,8.3440189 68.1038863,8.18149805 C67.994125,7.75129581 67.1260128,7.67481542 67.2257958,7.31153352 C67.7047543,7.52185462 68.2834957,7.60789507 68.5030184,8.0954576 Z M11.1178062,17.1201446 C10.1798458,15.2081346 12.1455712,14.0226885 13.2830976,13.2770046 C13.9416655,13.3726051 14.949474,12.3783599 16.3264796,12.0533182 C17.134722,11.8621172 17.6735503,11.8812373 18.4119446,11.7951969 C18.1824437,12.0437582 17.7334201,12.0437582 17.5338541,12.3209996 C17.8232248,12.5408807 18.0427474,11.9481577 18.5715974,12.1489187 C18.4418795,12.4166001 18.0726823,12.4261601 17.9329861,12.6747214 C18.1026172,12.7607619 18.8909031,12.015078 19.1303823,12.6747214 C18.7312502,12.6747214 18.3720314,12.7225217 18.1724654,12.9328428 C18.4817927,13.0953636 18.9407946,12.6842815 19.2900351,13.0188832 C19.1104257,13.2578845 18.5815757,13.1144837 18.491771,13.4586455 C18.6314672,13.5829262 19.6891672,13.0188832 19.7689936,13.6307264 C19.3898181,13.5924862 19.1902521,13.7550071 18.8909031,13.8028073 C19.1503389,13.9844483 19.84882,13.6116063 20.0882993,13.9748882 C19.8687766,14.1469691 19.3898181,14.0322485 19.2102087,14.2330096 C19.3698615,14.4337706 19.8787549,14.2616897 20.1681257,14.31905 C19.9785379,14.4624507 19.6791889,14.4911309 19.449688,14.5771713 C19.8089068,14.8639728 20.3676917,14.3859703 20.7368889,14.6632118 C20.7269106,15.0360537 20.2279955,14.8639728 20.0982776,15.1029741 C20.1182342,15.2272547 20.4974096,15.0264937 20.7368889,15.1029741 C20.9963247,15.2272547 20.4574964,15.1890145 20.3377568,15.1890145 C21.2757171,15.4088957 22.0739813,15.8008577 22.3433954,16.7664227 C21.4752832,17.588587 20.2479521,17.970989 19.0605342,18.16219 C17.4739842,18.4203113 16.3264796,17.4069461 14.9694306,17.1105845 C15.6379768,16.6421421 16.4961107,17.3304657 17.2145484,17.3687059 C16.9052211,17.0914644 16.4262626,17.005424 16.0171522,16.8429031 C16.3963277,16.623022 16.4961107,16.9098235 16.9750692,16.8429031 C16.8952428,16.5847818 16.3963277,16.7664227 16.4162843,16.4031408 C16.805438,16.4796212 17.2145484,16.5274215 17.6136805,16.5752217 C17.3841795,16.3553406 16.9950258,16.3171004 16.6557635,16.2214999 C16.8852645,16.0016188 17.5238758,16.2979803 17.3742012,15.8677781 C18.0227908,16.0207389 19.4995795,15.9155783 20.2579304,15.9538185 C19.9785379,16.3075403 19.2601002,16.1832597 18.9807078,16.3075403 C19.3000134,16.5847818 20.3277785,16.24062 20.90652,16.2214999 C20.6969756,16.632582 20.2579304,16.7951029 19.6193191,16.7473026 C19.7989285,17.0532242 20.2579304,16.9671838 19.5394927,17.005424 C20.3178002,17.2444252 21.1659558,16.8046629 21.5451313,16.3075403 C20.5971926,15.4471359 18.5516408,15.7817376 17.2145484,15.3419753 C15.3685626,15.9155783 12.0956797,19.4719168 10.319542,16.6517021 C10.2796288,13.7836872 12.5546816,12.8372423 14.5702985,11.9290376 C13.7321212,12.6842815 10.8384137,13.9079679 10.4791949,15.6861371 C10.3594552,16.2693001 10.4093467,17.1775049 11.1178062,17.0819044 L11.1178062,17.1201446 Z M13.7620561,13.8888478 C14.5004504,13.4108453 15.2687796,12.9615229 16.0870003,12.5791209 C15.0791919,12.7703219 14.0314702,12.8946026 13.7620561,13.8888478 Z M14.0813617,14.2425696 C14.7000164,14.2330096 15.248823,13.4299654 16.0870003,13.3726051 C15.4583673,13.0188832 14.3507759,13.6307264 14.0813617,14.2425696 Z M14.4006674,14.7683723 C14.8496909,14.2712497 15.777673,14.2903698 16.1668267,13.7167669 C15.5381937,13.9653282 14.2809278,13.9844483 14.4006674,14.7683723 Z M14.4006674,15.5522964 C14.9594523,14.9308932 16.0171522,14.8735329 16.5659588,14.32861 C15.7178032,14.5962914 14.6102117,14.5867314 14.4006674,15.5522964 Z M16.406306,15.1125341 C15.9173692,15.2070841 15.0093438,15.4382062 14.719973,16.0685391 C15.0791919,15.9529781 16.1568484,15.3541618 16.406306,15.1125341 Z M20.3377568,17.5599069 C20.9963247,17.3687059 22.0340681,17.1488247 21.9442633,16.4222609 C21.9243067,16.3553406 21.8744152,16.3171004 21.7846105,16.3362205 C21.5650879,17.0245441 20.7468672,17.0723443 20.3377568,17.5599069 Z M17.4540276,17.9022074 C17.4041361,18.5570941 19.8388417,19.1835075 19.6991455,17.6459473 C19.3099917,18.5570941 17.5138975,17.1334272 17.4540276,17.9022074 Z M1.18939612,14.4146505 C1.84796402,14.5484912 1.90783383,13.4395254 3.0353819,13.8028073 C2.87572908,13.5064458 2.23711778,13.735887 1.99763854,13.544686 C2.3468791,13.4299654 2.61629324,13.2292043 3.11520832,13.2865646 C2.87572908,12.7703219 1.86792062,13.2196443 1.58852818,13.1144837 C1.7581593,12.5217606 2.46661871,12.8659224 2.86575078,12.6747214 C2.55642343,12.3305596 2.21716118,12.5408807 1.66835459,12.5026405 C1.76813761,12.0246381 2.61629324,12.2158391 2.86575078,12.1489187 C2.74601116,11.9290376 2.12735646,11.7951969 1.90783383,11.9768378 C1.7282244,11.7187165 2.26705268,11.4988353 2.62627154,11.5370755 C2.43668381,11.1737936 1.94774703,11.6517961 1.66835459,11.3649946 C1.78809421,11.059073 2.12735646,10.9825926 2.54644513,11.0112728 C2.43668381,10.7531514 2.09742156,10.7435914 1.748181,10.7531514 C1.91781213,10.5045901 2.27703098,10.4567899 2.70609795,10.4950301 C2.55642343,9.91186706 1.90783383,10.4089896 1.748181,9.88318691 C1.98766024,9.72066606 2.32692249,9.54858517 2.62627154,9.71110601 C2.46661871,9.45298467 2.17724797,9.32870402 1.748181,9.35738417 C1.93776873,9.20442338 2.46661871,9.08970278 2.70609795,9.27134373 C2.75598946,8.78378119 2.10739986,9.05146258 1.90783383,8.83158144 C1.98766024,8.60214024 2.23711778,8.54477994 2.54644513,8.57346009 C2.30696589,8.25797845 1.78809421,8.3248988 1.50870177,8.48741964 C1.61846308,7.99029706 2.11737816,7.93293676 2.70609795,7.96161691 C2.53646683,7.61745512 1.97768194,7.64613527 1.66835459,7.70349556 C1.84796402,7.40713402 2.30696589,7.41669407 2.70609795,7.34977372 C2.43668381,7.00561193 1.94774703,7.14901268 1.50870177,7.17769283 C1.7082678,6.75705064 2.376814,6.67101019 2.87572908,6.82397099 C2.64622814,6.3459685 2.00761684,6.58496974 1.50870177,6.56584964 C1.68831119,6.1738876 2.23711778,6.1930077 2.79590267,6.2121278 C2.65620644,5.86796601 2.09742156,5.98268661 1.67833289,5.95400646 C1.7581593,5.51424417 2.4067489,5.69588512 2.79590267,5.60028462 C2.59633663,5.08404193 1.77811591,5.47600397 1.34904894,5.51424417 C1.60848478,5.16052233 2.12735646,5.07448188 2.46661871,4.81636054 C1.98766024,4.52955904 1.55859327,5.04580173 1.17941781,5.17008238 C1.33907064,4.28099775 2.58635833,4.16627715 3.50436208,4.3861583 C3.10523001,3.54487392 2.00761684,4.26187765 1.25924423,4.30011785 C1.91781213,3.36323297 4.07312526,3.74563496 4.38245261,4.73988014 C3.92345074,5.73412531 3.70392811,6.97693178 3.6640149,8.05721741 C3.59416679,9.57726532 3.53429698,12.3783599 4.14297337,13.8219274 C4.48223563,14.6249716 5.5798488,15.1029741 5.26054315,16.7951029 C5.02106391,18.0665895 2.41672721,18.9461141 2.21716118,16.7951029 C2.49655362,18.1430699 4.61195355,18.0761496 5.02106391,16.8811433 C5.25056485,15.1507743 4.46227902,14.519811 3.41455736,14.1756493 C1.25924423,14.0418086 -0.147696292,16.1928198 1.00978669,18.0187893 C1.63841969,19.0130344 2.90566398,19.2424756 4.13299507,19.3285161 C6.42800443,19.4814769 8.74297039,17.7606679 10.3794118,17.579027 C9.71086564,18.1143898 8.74297039,18.3247108 7.81498835,18.7166729 C6.39806953,19.309396 4.10306017,19.8734389 2.12735646,19.2424756 C1.92779043,18.9078739 1.48874516,18.8313935 1.16943951,18.6306324 C1.20935272,18.3247108 1.0995914,18.1813101 0.929960275,18.1048297 C-0.117761388,17.2922255 0.570741419,15.3419753 1.16943951,14.4337706 L1.18939612,14.4146505 Z M1.34904894,16.25018 C1.64139804,16.541645 2.70116353,16.7048653 2.22609624,17.206185 C1.80584441,16.9846717 1.44040803,16.7165239 1.34904894,16.25018 Z M4.35251771,15.6304246 C4.35251771,16.293996 3.87439076,16.4045913 3.35468755,16.4488294 L3.35468755,15.6304246 C3.64572135,15.2544007 3.77045012,15.7852579 4.35251771,15.6304246 Z M4.3126045,15.3802155 C4.62193185,16.0972193 3.77377622,16.2979803 3.43451396,16.6039019 C3.86358093,16.9289436 4.18288658,16.3744607 4.47225733,16.25018 C4.2826696,16.7090624 3.97334225,17.0436642 3.43451396,17.1201446 C3.72388471,17.3782659 4.20284318,17.0914644 4.47225733,17.0341041 C3.96336395,17.9518689 2.11737816,17.3209056 2.78592436,16.0685391 C3.32475265,16.2693001 3.26488284,16.0685391 3.90349414,16.0685391 C4.01325545,15.8104178 4.3225828,15.7721776 4.3026262,15.3706555 L4.3126045,15.3802155 Z M1.51389353,15.1220942 C1.92545647,15.5140562 2.23412868,15.9633786 2.50164459,16.431821 C1.51389353,16.3457805 1.47273723,15.7530575 1.51389353,15.1220942 Z M4.12115014,14.9500133 C4.83970881,15.4280158 3.66606298,15.6150602 3.5463032,15.9060183 C3.28283169,15.8436701 3.37863951,15.4280158 3.35468755,15.1370577 C3.66606298,15.116275 4.09719818,15.2201886 4.12115014,14.9500133 Z M2.7765657,14.510251 C3.22508897,14.5676113 3.09053199,15.1890145 3.22508897,15.5618565 C2.94476193,15.667017 2.58594332,15.6956972 2.23833779,15.7339374 C2.28319012,15.3706555 2.66443489,15.4949361 2.23833779,15.2941751 C2.1710593,15.0551738 2.42896018,15.1220942 2.50745175,15.0360537 C2.48502559,14.9117731 2.23833779,15.0073736 2.23833779,14.8639728 C2.1710593,14.510251 2.68686105,14.7205721 2.7765657,14.510251 Z M10.648826,8.3057787 C10.0501279,8.1336978 9.09221094,7.96161691 8.72301379,8.4778596 C8.92257982,8.97498218 9.75077885,8.3440189 10.3295203,8.64994049 C9.99025808,9.03234248 8.94253642,8.64994049 8.72301379,9.17574323 C9.18201566,9.36694422 10.5689996,8.77422114 11.047958,9.52946507 C10.4991515,9.35738417 9.58114772,9.40518442 9.20197226,9.70154596 C9.57116942,10.0552678 10.3993684,9.47210477 10.9681316,9.87362686 C10.6089128,10.294269 9.72084394,10.1413083 9.28179867,10.48547 C9.76075715,10.6862311 10.3594552,10.2560289 11.047958,10.3994296 C10.6588043,10.8774321 9.75077885,10.7913916 9.20197226,11.0973132 C9.76075715,11.441475 10.8683486,10.4281097 11.2874373,11.1833537 C10.5091298,11.1259934 9.98027978,11.3363145 9.4414515,11.5370755 C9.71086564,11.8429971 10.7885222,11.1164333 11.2874373,11.623116 C10.6687826,11.7951969 9.99025808,11.8907974 9.4414515,12.1489187 C9.93038827,12.4452802 10.5689996,11.814317 11.3672637,12.1489187 C11.0180231,12.4261601 9.74080055,12.1680388 9.4414515,12.7607619 C10.1299543,12.8276822 10.7685656,12.3592398 11.2874373,12.7607619 C10.9980665,13.2292043 9.72084394,12.6269212 9.52127791,13.2005242 C10.1499109,13.4299654 10.5989345,13.1431639 11.1277845,13.2865646 C10.8384137,13.8697277 9.89047507,13.2578845 9.4414515,13.7263269 C9.71086564,13.927088 10.319542,13.7550071 10.7186741,13.8123674 C10.5091298,14.3381701 9.4414515,13.936648 9.11216755,14.3381701 C9.33169018,14.5771713 10.2097807,14.31905 10.3095637,14.4242105 C10.1698675,14.9691334 9.23190717,14.6536517 8.86271001,14.9500133 C9.07225434,15.4375758 9.67095243,14.711012 9.98027978,15.0360537 C9.91043167,15.5140562 9.25186377,15.3515354 9.02236283,15.6478969 C9.28179867,16.0111788 9.67095243,15.3132952 9.90045337,15.6478969 C10.020193,16.2310599 8.76292699,15.8773381 8.62323077,16.6134619 C8.96249302,16.8907034 9.4314732,16.1067793 9.82062696,16.441381 C9.68093074,16.9385036 8.7828836,16.5847818 8.70305718,17.1392647 C9.28179867,17.3113456 9.84058356,16.5847818 9.99025808,17.3113456 C9.31173358,17.4451863 8.88266661,17.8467084 8.1442723,17.9231888 C6.2583733,19.0130344 2.70609795,19.701358 1.24926592,17.6650674 C1.44883196,17.6555074 1.49872346,17.7989081 1.64839799,17.8371483 C1.7082678,17.6746275 1.28917913,17.3017855 1.16943951,17.0532242 C1.62844138,17.0245441 2.18722627,17.6363873 2.3668357,18.1908702 C4.21282149,18.9174339 5.74947992,17.8562684 5.64969691,16.0016188 C5.5798488,14.711012 4.52214883,13.7836872 4.20284318,12.7703219 C4.12301677,11.7569567 4.02323376,10.3420693 4.04319036,9.09926283 C6.12865538,8.99410228 8.65316568,7.22549308 10.6188911,8.31533875 L10.648826,8.3057787 Z M10.2496939,5.60028462 C10.8384137,5.14140223 11.5069599,4.75900024 12.0956797,4.2905578 C11.3373288,4.56779924 10.5989345,4.87372084 10.2496939,5.60028462 Z M10.648826,6.12608735 C10.9681316,5.69588512 11.3872203,5.36128337 11.7663958,4.98844143 C11.1976326,5.10316203 10.3095637,5.58116452 10.648826,6.12608735 Z M10.8084788,6.6445391 C11.3473071,6.48827625 11.5169382,5.8944774 12.005875,5.69654445 C11.5867863,5.63403931 10.8284354,5.93614749 10.8084788,6.6445391 Z M10.9681316,7.26373328 C11.2974156,7.21709889 11.7963307,6.52924165 12.2553325,6.3077283 C11.6865693,6.44763147 11.0080448,6.42431427 10.9681316,7.26373328 Z M11.3672637,7.70349556 C11.6965476,7.18725288 12.4548986,7.13945263 12.8939438,6.73793054 C12.1854844,6.78573079 11.2874373,7.07253228 11.3672637,7.70349556 Z M11.4470901,8.14325785 C11.7763741,8.43005935 11.7165043,9.12794298 12.0857014,9.36694422 C11.806309,9.79714646 11.7663958,10.6957911 12.3251806,11.0303929 C12.3650939,10.48547 12.9837485,10.5810705 13.2032712,10.2464688 C12.8939438,10.0648279 12.4948118,10.4281097 12.0857014,10.4185497 C12.2154193,9.79714646 13.0037052,9.94054721 13.2830976,9.72066606 C12.9637919,9.44342462 12.5047901,9.89274696 12.3251806,9.72066606 C12.4548986,9.39562437 12.8440523,9.34782412 13.2830976,9.36694422 C13.1733363,8.77422114 12.6943778,9.44342462 12.2453542,9.28090378 C12.2952457,8.74554099 13.1034882,9.05146258 13.2032712,8.58302014 C12.7243127,8.46829955 12.1854844,9.01322238 12.005875,8.66906059 C12.1854844,8.4204993 12.4149854,8.2484184 12.8839655,8.31533875 C12.6145514,7.83733626 11.9859184,8.39181915 11.8462222,8.2292983 C11.9559835,7.79909606 12.8240957,7.72261566 12.7243127,7.35933377 C12.2453542,7.56965487 11.6666127,7.65569532 11.4470901,8.14325785 Z" id="å½¢çŠ¶"></path>
            <path d="M12.0857014,4.2714377 C11.4969816,4.73988014 10.8384137,5.12228213 10.2397156,5.58116452 C10.5889562,4.85460074 11.3273505,4.54867914 12.0857014,4.2714377 Z M40.264425,13.4108453 C42.2401287,13.363045 44.2457673,13.2100842 46.2414276,12.9902031 C51.1607303,12.4548403 55.3715735,11.1642336 60.8297045,11.3267544 C60.0713536,13.4108453 58.5247168,14.6440917 57.1477112,16.049419 C57.1876244,16.4605011 57.2774291,16.6899423 57.3871905,17.1870649 C58.6843697,18.4681116 62.037079,19.1086349 64.0427176,18.0570295 C64.3320883,17.9040687 64.5116978,17.579027 64.8409817,17.5312267 C65.9385949,17.3687059 67.265709,19.0321545 68.7724325,18.1430699 C71.0075721,18.6210724 73.2926031,20.0455198 75.5077861,19.9785995 C77.523403,19.9116791 79.9082171,19.309396 79.9980218,16.8333431 C80.0479133,15.4184557 79.1398878,14.7588123 78.880452,13.6020463 C78.6210162,12.4644003 78.6609294,10.7053512 78.7207992,9.14706308 C78.7607124,8.07633751 78.7607124,6.71881044 78.9602784,5.91576626 C79.0500831,5.56204442 79.4591935,5.17008238 79.4392369,4.77812034 C79.3693888,2.92347069 75.6574606,2.93303073 75.0288276,4.33835805 C75.4778512,5.47600397 75.9667879,6.57540969 75.9069181,8.2675385 C74.579804,8.52565984 73.4322993,7.67481542 72.2249249,7.39757397 C71.2969428,7.17769283 70.4986787,7.64613527 69.5008485,7.48361442 C69.780241,6.3842087 71.1173334,6.57540969 70.3789391,5.03624168 C69.5008485,3.20071213 66.3477052,1.49902327 64.6114808,0.839379838 C62.9850176,0.217976603 59.0136536,-0.145305288 56.678731,0.0554557574 C51.6197322,0.495218046 47.4088889,2.16822675 42.4895862,2.58886894 C41.5815608,2.66534934 40.6436005,2.68446944 39.7156184,2.64622924 L39.7156184,2.68446944 C38.9772241,2.69402949 38.2288515,2.67490939 37.5104138,2.60798904 C32.6010894,2.18734685 28.3902461,0.504778096 23.321269,0.0745758569 C20.9763681,-0.126185188 17.0149824,0.246656753 15.3885192,0.858499937 C13.6423165,1.51814337 10.4891732,3.21983223 9.62106093,5.05536178 C8.89264491,6.59452979 10.219759,6.4033288 10.4991515,7.50273452 C9.50132131,7.66525537 8.70305718,7.19681293 7.77507514,7.41669407 C6.55772235,7.70349556 5.42019597,8.54477994 4.09308187,8.2866586 C4.03321206,6.58496974 4.52214883,5.49512407 4.9711724,4.35747815 C4.34253941,2.95215083 0.630611229,2.94259078 0.560763118,4.79724044 C0.550784816,5.18920248 0.95989518,5.58116452 1.03972159,5.93488636 C1.23928762,6.74749059 1.23928762,8.0954576 1.27920083,9.16618318 C1.33907064,10.7244713 1.37898385,12.4930805 1.119548,13.6211664 C0.860112164,14.7779324 -0.0479132767,15.4471359 0.00197823107,16.8524632 C0.0818046435,19.3285161 2.47659702,19.9403593 4.49221393,19.9977196 C6.70739687,20.0646399 8.98244963,18.6401925 11.2275675,18.16219 C12.7243127,19.0512746 14.0614051,17.387826 15.1590183,17.5503468 C15.4982805,17.5981471 15.67789,17.9231888 15.9572824,18.0761496 C17.962921,19.118195 21.305652,18.4776716 22.6128095,17.206185 C22.7225709,16.7090624 22.8123756,16.4891813 22.8522888,16.0685391 C21.4653049,14.6632118 19.9286464,13.4299654 19.1702955,11.3458745 C24.6184482,11.1833537 28.8392697,12.4739604 33.7585724,13.0093232 C35.9438204,13.2483244 38.1490251,13.4108453 40.2943599,13.4395254 L40.2943599,13.4108453 L40.264425,13.4108453 Z M40.2344901,3.27719253 C40.9429495,3.29631263 41.6613872,3.26763248 42.3099768,3.20071213 C44.8744003,2.92347069 47.678303,2.3498677 50.4023794,1.80494486 C55.2119207,0.839379838 59.9316573,0.256216802 64.5017195,1.45122302 C66.6570326,2.65578929 69.1815429,3.45883347 70.1095249,5.99224666 C68.6427146,6.93869158 68.3832788,10.0074676 68.2635391,12.2827594 C68.2435825,12.6173611 68.5129967,13.0475634 68.1038863,13.2483244 C68.2535608,12.4835204 67.6548627,12.0246381 67.7845807,11.1546735 C67.365492,10.9634725 66.7667939,10.3707494 66.4175534,10.6288708 C66.7169024,10.9443524 67.2357741,11.0208328 67.4552967,11.4127949 C66.9763382,11.5275155 66.6570326,11.0112728 66.3377269,11.240714 C66.6969458,11.5753157 67.4453184,11.4892753 67.5351231,12.1106785 C67.0362081,11.9863979 66.4175534,11.5179554 65.9286166,11.6709162 C66.5971628,11.9672778 67.2756873,12.2445192 67.694776,12.8085621 C66.7069241,12.2827594 65.579376,11.5466356 64.2522619,11.6709162 C61.5980337,10.7053512 58.7641961,10.294269 55.8405537,10.8869921 C54.7429405,11.1068733 53.6253708,11.2215939 52.4778661,11.4127949 C48.3767842,12.1011185 43.9563966,12.8468023 39.6856835,12.9424028 L39.6856835,12.9519629 C35.5945799,12.8085621 31.3837366,12.1011185 27.4622641,11.441475 C26.3047811,11.250274 25.1971896,11.1355534 24.0995765,10.9156723 C21.1759341,10.3229492 18.3321182,10.7340313 15.6878683,11.6995964 C14.3607542,11.5753157 13.2332061,12.3114395 12.2453542,12.8372423 C12.6644429,12.2731993 13.3429674,11.9959579 14.0115136,11.6995964 C13.5225768,11.5466356 12.9139004,12.015078 12.4050071,12.1393587 C12.4948118,11.5083954 13.2431844,11.5944358 13.6024032,11.2693941 C13.2830976,11.0399529 12.9637919,11.5561956 12.4848335,11.441475 C12.7143344,11.049513 13.2232278,10.9634725 13.5225768,10.6575509 C13.1833146,10.3994296 12.5746382,10.9921527 12.1555495,11.1833537 C12.2852674,12.0628783 11.6865693,12.5217606 11.8362439,13.2770046 C11.4271335,13.0762435 11.6965476,12.6460413 11.676591,12.3114395 C11.5668297,10.0361477 11.3073939,6.95781168 9.83060526,6.02092681 C10.7585873,3.47795357 13.2830976,2.67490939 15.4384107,1.47990317 C20.0184511,0.275336902 24.7282095,0.868059987 29.5377508,1.83362501 C32.2618271,2.37854785 35.0657299,2.95215083 37.6301534,3.22939228 C38.4383958,3.31543273 39.3563995,3.33455282 40.2145335,3.28675258 L40.2344901,3.27719253 Z M79.0101699,18.0665895 C78.8405388,18.1430699 78.7307775,18.2864706 78.7706907,18.5923922 C78.451385,18.7931533 78.0123398,18.8696337 77.8127737,19.2042354 C75.83707,19.8447588 73.5320824,19.2711558 72.1251418,18.6784327 C71.1971598,18.2864706 70.2292646,18.0761496 69.5607183,17.5407868 C71.1971598,17.7224277 73.5121258,19.4432367 75.8071351,19.2902759 C77.0344662,19.2042354 78.3017105,18.9652342 78.9303435,17.9805491 C80.0878265,16.1450195 78.680886,14.0035684 76.5255728,14.1374091 C75.4878295,14.4911309 74.6995436,15.1125341 74.9190663,16.8429031 C75.3281766,18.0379094 77.4435766,18.1048297 77.722969,16.7568627 C77.523403,18.9078739 74.9190663,18.0283493 74.679587,16.7568627 C74.3602814,15.0647339 75.4678729,14.5867314 75.7971568,13.7836872 C76.4058332,12.3305596 76.3459634,9.52946507 76.2761153,8.01897721 C76.2262238,6.92913153 76.0166794,5.68632507 75.5576776,4.70163994 C75.8670049,3.70739477 78.0223181,3.32499278 78.680886,4.26187765 C77.9325133,4.22363745 76.8349002,3.51619377 76.4357681,4.3479181 C77.3537719,4.137597 78.6010596,4.24275755 78.7607124,5.13184218 C78.3815369,5.01712158 77.9624483,4.49131885 77.4735115,4.77812034 C77.822752,5.04580173 78.3316454,5.12228213 78.5910813,5.47600397 C78.1719926,5.43776377 77.3437936,5.04580173 77.1442275,5.56204442 C77.5333813,5.65764492 78.1919492,5.47600397 78.2617973,5.91576626 C77.8327303,5.94444641 77.2839237,5.83928586 77.1442275,6.1738876 C77.6930341,6.1547675 78.251819,6.1356474 78.4314284,6.52760944 C77.9325133,6.54672954 77.3038804,6.31728835 77.0644011,6.78573079 C77.5533379,6.63276999 78.2318624,6.70925039 78.4314284,7.13945263 C77.9824049,7.12033253 77.5034464,6.97693178 77.2340322,7.31153352 C77.6331643,7.36889382 78.0921662,7.36889382 78.2717756,7.66525537 C77.95247,7.61745512 77.4036634,7.57921492 77.2340322,7.92337671 C77.822752,7.89469656 78.3316454,7.95205686 78.4314284,8.44917945 C78.1420577,8.2866586 77.623186,8.21973825 77.3936851,8.53521989 C77.7129907,8.51609979 77.95247,8.57346009 78.0322964,8.79334124 C77.8327303,9.01322238 77.1841407,8.74554099 77.2340322,9.23310353 C77.4834898,9.05146258 78.0123398,9.16618318 78.1919492,9.31914397 C77.7628822,9.28090378 77.4735115,9.40518442 77.3138587,9.67286582 C77.6132077,9.51034497 77.9624483,9.69198591 78.1919492,9.84494671 C78.0223181,10.3707494 77.3837068,9.88318691 77.2340322,10.4567899 C77.6630992,10.4281097 78.0223181,10.4663499 78.1919492,10.7149112 C77.8427086,10.7053512 77.5034464,10.7244713 77.3936851,10.9730326 C77.822752,10.9443524 78.1620143,11.0112728 78.2717756,11.3267544 C77.9824049,11.6135559 77.5034464,11.1355534 77.3138587,11.4988353 C77.6730775,11.4605951 78.2119058,11.6709162 78.0322964,11.9385976 C77.8027954,11.7569567 77.194119,11.8907974 77.0743794,12.1106785 C77.3338153,12.1775989 78.1719926,11.9863979 78.2717756,12.4644003 C77.7129907,12.5026405 77.3837068,12.2923194 77.0743794,12.6364812 C77.4834898,12.8276822 78.1919492,12.4835204 78.351602,13.0762435 C78.0722096,13.1814041 77.0743794,12.7320817 76.8249219,13.2483244 C77.323837,13.2005242 77.6032294,13.3917252 77.9424916,13.5064458 C77.6930341,13.7072068 77.0644011,13.4777656 76.9047483,13.7645671 C78.0322964,13.4012852 78.0821879,14.510251 78.7507341,14.3764103 C79.3494322,15.284615 80.037935,17.2348652 78.9902133,18.0474694 L79.0101699,18.0665895 Z M75.8869615,9.06102263 C75.9069181,10.3038291 75.8071351,11.7187165 75.7273087,12.7320817 C75.4179814,13.745447 74.3503031,14.6727718 74.280455,15.9633786 C74.180672,17.8084682 75.7173304,18.8791937 77.5633162,18.15263 C77.7529039,17.5981471 78.3017105,16.9863039 78.7607124,17.014984 C78.6409728,17.2635453 78.2119058,17.6363873 78.2817539,17.7989081 C78.4314284,17.7606679 78.4813199,17.6077071 78.680886,17.6268272 C77.2240539,19.6631178 73.6717786,18.9843543 71.7858796,17.8849486 C71.0574636,17.8084682 70.6184183,17.4069461 69.9398938,17.2731054 C70.07959,16.5465416 70.6483532,17.2731054 71.2270947,17.1010245 C71.1472683,16.5465416 70.2392429,16.9002634 70.1095249,16.4031408 C70.4986787,16.0685391 70.9676589,16.8524632 71.3069211,16.5752217 C71.1572466,15.8390979 69.8999806,16.1928198 70.0296985,15.6096567 C70.2591995,15.275055 70.6483532,15.9729386 70.9077891,15.6096567 C70.6683098,15.3132952 70.0197202,15.475816 69.9498721,14.9978135 C70.2591995,14.6727718 70.8678758,15.3897756 71.0674419,14.9117731 C70.6982447,14.6154115 69.7602844,14.9308932 69.6205882,14.3859703 C69.7203712,14.2808098 70.5984617,14.5389311 70.8179843,14.2999299 C70.4887004,13.8984078 69.4310004,14.2999299 69.2114778,13.7741272 C69.6106099,13.7167669 70.2292646,13.8888478 70.4887004,13.6880867 C70.0496551,13.2196443 69.1017165,13.8314875 68.8023674,13.2483244 C69.3312174,13.1049237 69.780241,13.3917252 70.408874,13.162284 C70.2093079,12.588681 68.9320853,13.2005242 68.6427146,12.7225217 C69.1615863,12.3209996 69.8001976,12.789442 70.4887004,12.7225217 C70.1893513,12.1297986 68.9121287,12.3879199 68.5628882,12.1106785 C69.3611523,11.7760768 69.9997636,12.40704 70.4887004,12.1106785 C69.9498721,11.8525572 69.2613693,11.7569567 68.6427146,11.5848758 C69.1416297,11.0781931 70.2192862,11.8047569 70.4887004,11.4988353 C69.9498721,11.2980743 69.4210221,11.0877532 68.6427146,11.1451135 C69.0618033,10.3803095 70.1693947,11.4032348 70.7281796,11.059073 C70.179373,10.7531514 69.2713476,10.8391919 68.8821938,10.3611894 C69.5706966,10.2273487 70.1594164,10.6479909 70.6483532,10.4472298 C70.2192862,10.1030681 69.3212391,10.2560289 68.9620203,9.83538666 C69.5307834,9.43386457 70.3589825,10.0074676 70.7281796,9.66330577 C70.3589825,9.36694422 69.4310004,9.31914397 68.8821938,9.49122487 C69.3611523,8.74554099 70.7481362,9.33826407 71.2071381,9.13750303 C70.9975938,8.61170029 69.9498721,8.99410228 69.6006316,8.61170029 C70.179373,8.3057787 70.9975938,8.93674198 71.2071381,8.4396194 C70.8379409,7.92337671 69.880024,8.0954576 69.2813259,8.2675385 C71.2470513,7.17769283 73.7715616,8.94630203 75.8570266,9.05146258 L75.8869615,9.06102263 Z M69.4709136,15.7052572 C69.1116948,13.927088 66.2179873,12.7034016 65.37981,11.9481577 C67.3854486,12.8563624 69.6704797,13.8028073 69.6305665,16.6708222 C67.8544288,19.4910369 64.5815459,15.9346984 62.7355601,15.3610954 C61.3984677,15.8008577 59.3529159,15.4566959 58.4049772,16.3266604 C58.7741744,16.823783 59.6323083,17.2635453 60.4106158,17.0245441 C59.6921781,16.9863039 60.15118,17.0723443 60.3307894,16.7664227 C59.7021564,16.814223 59.2531328,16.6612622 59.0435885,16.24062 C59.62233,16.2597401 60.6500951,16.6039019 60.9694007,16.3266604 C60.6900083,16.2119399 59.9615923,16.3266604 59.6921781,15.9729386 C60.450529,15.9346984 61.9273177,16.039859 62.5759073,15.8868982 C62.4262327,16.3171004 63.064844,16.0111788 63.294345,16.24062 C62.9451044,16.3266604 62.5559507,16.3744607 62.336428,16.5943418 C62.7355601,16.5369815 63.1546488,16.4891813 63.5338242,16.4222609 C63.5438025,16.7855428 63.0548657,16.5943418 62.9750393,16.8620232 C63.4539978,16.9289436 63.5537808,16.6421421 63.9329563,16.8620232 C63.5238459,17.0245441 63.0349091,17.1105845 62.7355601,17.387826 C63.4539978,17.3400257 64.3021534,16.6517021 64.9806779,17.1297046 C63.6236289,17.4165061 62.4761242,18.4394314 60.8895743,18.1813101 C59.7021564,17.9901091 58.464847,17.6077071 57.6067131,16.7855428 C57.8761272,15.8295379 58.6644131,15.4375758 59.6123517,15.2081346 C59.4926121,15.2081346 58.9537838,15.2368148 59.2132196,15.1220942 C59.4526989,15.0456138 59.8318743,15.2463748 59.8518309,15.1220942 C59.722113,14.8830929 59.2132196,15.0551738 59.2132196,14.6823319 C59.5824168,14.4050904 60.1412017,14.8830929 60.5004205,14.5962914 C60.2609413,14.5006909 59.9715706,14.4720108 59.7819828,14.3381701 C60.0813319,14.2808098 60.5802469,14.4528907 60.7398998,14.2521296 C60.5602903,14.0418086 60.0813319,14.1565292 59.8618092,13.9940083 C60.1112668,13.6307264 60.8097479,14.0035684 61.0592054,13.8219274 C60.7598564,13.7741272 60.5602903,13.6116063 60.1811149,13.6498465 C60.2609413,13.0380033 61.3286196,13.6020463 61.4583375,13.4777656 C61.3685328,13.1336038 60.8396828,13.2865646 60.6600734,13.0380033 C61.0093139,12.7034016 61.4683158,13.1144837 61.7776431,12.9519629 C61.5780771,12.7320817 61.2188582,12.6842815 60.8197262,12.6938415 C61.0592054,12.0341981 61.8474912,12.779882 62.0171224,12.6938415 C61.8674478,12.4452802 61.4982507,12.4357202 61.3785111,12.1680388 C61.9073611,11.9672778 62.136862,12.5695609 62.4162544,12.3401197 C62.2166884,12.0628783 61.7576865,12.0628783 61.5381639,11.814317 C62.2765582,11.9003574 62.8153865,11.8812373 63.6236289,12.0724383 C65.0106128,12.39748 66.008443,13.3917252 66.6670109,13.2961247 C67.8045373,14.0513686 69.7702627,15.2368148 68.8323023,17.1392647 C69.55074,17.2253051 69.5906533,16.3171004 69.4709136,15.7434974 L69.4709136,15.7052572 Z M77.8316297,14.8352927 C77.8316297,14.9786934 77.5849419,14.8830929 77.5625157,15.0073736 C77.6410073,15.1029741 77.8989081,15.0360537 77.8316297,15.2654949 C77.4055326,15.466256 77.7867773,15.3419753 77.8316297,15.7052572 C77.4840241,15.667017 77.1139924,15.6383369 76.8448785,15.5331763 C76.9794355,15.1698944 76.8448785,14.5389311 77.2934017,14.4815708 C77.3831064,14.6823319 77.8989081,14.4815708 77.8316297,14.8352927 Z M77.1875368,15.1083776 C77.1635849,15.3993356 77.2593927,15.81499 76.9959212,15.8773381 C76.8761614,15.5863801 75.7025156,15.3993356 76.4210742,14.9213331 C76.4450262,15.2122912 76.8761614,15.0875949 77.1875368,15.1083776 Z M77.9724266,16.4031408 C78.2399425,15.9346984 78.5486147,15.4853761 78.9601776,15.093414 C79.0013339,15.7339374 78.9601776,16.3171004 77.9724266,16.4031408 Z M76.0466144,16.049419 C76.6852257,16.049419 76.6353341,16.25018 77.1641841,16.049419 C77.8427086,17.3017855 75.9967228,17.9327488 75.4778512,17.014984 C75.7472653,17.0723443 76.2262238,17.3591458 76.5155945,17.1010245 C75.9767662,17.014984 75.6674389,16.6899423 75.4778512,16.2310599 C75.7672219,16.3553406 76.0865276,16.9002634 76.5155945,16.5847818 C76.1763323,16.2788602 75.3281766,16.0780992 75.637504,15.3610954 C75.6175474,15.7626175 75.9268747,15.8008577 76.0366361,16.0589791 L76.0466144,16.049419 Z M77.1242709,15.6017444 L77.1242709,16.4201492 C76.6045677,16.3759111 76.1264408,16.2874349 76.1264408,15.6017444 C76.7085084,15.7565778 76.8332371,15.2257206 77.1242709,15.6017444 Z M78.1869023,17.1775049 C77.711835,16.6645266 78.7716005,16.5013062 79.0639496,16.2214999 C78.9725905,16.6878438 78.6071541,16.9559915 78.1869023,17.1775049 Z M65.2301355,16.039859 C64.9407647,15.409526 64.0327393,15.1678984 63.5438025,15.083854 C63.79326,15.3359872 64.8709166,15.9242979 65.2301355,16.039859 Z M60.2609413,17.6172672 C60.1212451,19.1548274 62.5559507,18.528414 62.5060591,17.8735272 C62.4461893,17.1047471 60.6500951,18.528414 60.2609413,17.6172672 Z M58.1754763,16.3075403 C58.0856716,16.2979803 58.0357801,16.3266604 58.0158235,16.3935808 C57.9260187,17.1105845 58.9637621,17.3400257 59.62233,17.5312267 C59.2231979,17.0341041 58.4049772,16.9958639 58.1754763,16.3075403 Z M63.3841497,14.2999299 C63.9329563,14.8544128 64.9806779,14.902213 65.5494411,15.5236163 C65.3398968,14.5580512 64.2323053,14.5676113 63.3841497,14.2999299 Z M63.7832817,13.6880867 C64.1724355,14.2616897 65.1004176,14.2330096 65.5494411,14.7396922 C65.6691807,13.9557681 64.421893,13.9462081 63.7832817,13.6880867 Z M63.8631082,13.3343649 C64.7012855,13.3917252 65.2500921,14.1947694 65.8687468,14.2043294 C65.5993326,13.5829262 64.4917412,12.971083 63.8631082,13.3343649 Z M63.8631082,12.5504408 C64.6813289,12.9424028 65.4496581,13.3821651 66.1880524,13.8601676 C65.9286166,12.8659224 64.8709166,12.7320817 63.8631082,12.5504408 Z M67.2257958,7.30197347 C67.1260128,7.67481542 67.994125,7.74173576 68.1038863,8.171938 C67.9641901,8.33445885 67.3355571,7.77997596 67.066143,8.25797845 C67.5351231,8.18149805 67.7746024,8.363139 67.9442335,8.61170029 C67.7646241,8.95586208 67.2257958,8.41093925 66.7468373,8.52565984 C66.8466203,8.99410228 67.6648411,8.68818069 67.7047543,9.22354348 C67.2457524,9.39562437 66.7667939,8.71686084 66.6670109,9.30958392 C67.1160345,9.29046382 67.5051882,9.32870402 67.6249278,9.66330577 C67.4353401,9.83538666 66.9863165,9.38606432 66.6670109,9.66330577 C66.9563816,9.89274696 67.7446675,9.73978616 67.8644071,10.3611894 C67.4552967,10.3707494 67.0461864,10.0074676 66.7468373,10.1891085 C66.9663599,10.5332703 67.5949929,10.4376698 67.6249278,10.9730326 C68.1837127,10.6479909 68.1437995,9.73978616 67.8644071,9.30958392 C68.2336042,9.07058268 68.1737344,8.37269905 68.5030184,8.08589756 C68.2834957,7.59833502 67.7047543,7.50273452 67.2257958,7.30197347 Z M67.066143,6.69013029 C67.5051882,7.09165238 68.2635391,7.12989258 68.5928231,7.65569532 C68.6726495,7.02473203 67.7845807,6.74749059 67.066143,6.69013029 Z M67.7047543,6.250368 C68.1637561,6.48353995 68.6626712,7.15973859 68.9919552,7.20637298 C68.9620203,6.36695397 68.2735174,6.39027117 67.7047543,6.250368 Z M67.9442335,5.63936844 C68.4431486,5.83676737 68.6127797,6.43935359 69.1416297,6.58480543 C69.1216731,5.86793562 68.3633222,5.56664252 67.9442335,5.63936844 Z M68.1837127,4.94064118 C68.5628882,5.31348312 68.9819769,5.63852482 69.3012825,6.07828711 C69.6405448,5.53336427 68.7524759,5.05536178 68.1837127,4.94064118 Z M67.8644071,4.24275755 C68.4531269,4.71119999 69.1116948,5.09360198 69.7103929,5.55248437 C69.3611523,4.82592059 68.622758,4.51999899 67.8644071,4.24275755 Z M14.719973,16.0685391 C15.0093438,15.4382062 15.9173692,15.1965785 16.406306,15.1125341 C16.1568484,15.3646673 15.0791919,15.9529781 14.719973,16.0685391 Z M0.939938577,18.0761496 C1.1095697,18.15263 1.21933102,18.2960307 1.17941781,18.6019523 C1.49872346,18.8027133 1.93776873,18.8791937 2.13733476,19.2137955 C4.11303847,19.8543188 6.41802613,19.2807158 7.82496665,18.6879927 C8.75294869,18.2960307 9.72084394,18.0857096 10.3893901,17.5503468 C8.75294869,17.7319878 6.43798273,19.4527967 4.14297337,19.2998359 C2.91564228,19.2137955 1.64839799,18.9747942 1.01976499,17.9901091 C-0.137717991,16.1545796 1.26922253,14.0131284 3.42453566,14.1469691 C4.46227902,14.5006909 5.25056485,15.1220942 5.03104221,16.8524632 C4.62193185,18.0474694 2.50653192,18.1143898 2.22713948,16.7664227 C2.42670551,18.9174339 5.03104221,18.0379094 5.27052145,16.7664227 C5.5898271,15.0742939 4.48223563,14.5962914 4.15295168,13.7932473 C3.54427528,12.3401197 3.60414509,9.53902512 3.6739932,8.02853726 C3.72388471,6.93869158 3.93342904,5.69588512 4.39243091,4.71119999 C4.08310357,3.71695482 1.92779043,3.33455282 1.26922253,4.2714377 C2.01759514,4.2331975 3.11520832,3.52575382 3.51434038,4.35747815 C2.59633663,4.14715705 1.34904894,4.2523176 1.18939612,5.14140223 C1.56857157,5.02668163 1.98766024,4.5008789 2.47659702,4.78768039 C2.12735646,5.05536178 1.61846308,5.13184218 1.35902724,5.48556402 C1.77811591,5.44732382 2.60631494,5.05536178 2.80588097,5.57160447 C2.41672721,5.66720497 1.7581593,5.48556402 1.68831119,5.92532631 C2.11737816,5.95400646 2.66618475,5.84884591 2.80588097,6.18344765 C2.25707438,6.16432755 1.69828949,6.14520745 1.51868007,6.53716949 C2.01759514,6.55628959 2.64622814,6.3268484 2.88570738,6.79529084 C2.3967706,6.64233004 1.7182461,6.71881044 1.51868007,7.14901268 C1.96770364,7.12989258 2.44666211,6.98649183 2.71607625,7.32109357 C2.31694419,7.37845387 1.85794232,7.37845387 1.67833289,7.67481542 C1.99763854,7.62701517 2.54644513,7.58877497 2.71607625,7.93293676 C2.12735646,7.90425661 1.61846308,7.96161691 1.51868007,8.4587395 C1.80805081,8.29621865 2.32692249,8.2292983 2.55642343,8.54477994 C2.23711778,8.52565984 1.99763854,8.58302014 1.91781213,8.80290129 C2.11737816,9.02278243 2.76596776,8.75510104 2.71607625,9.24266358 C2.46661871,9.06102263 1.93776873,9.17574323 1.7581593,9.32870402 C2.18722627,9.29046382 2.47659702,9.41474447 2.63624984,9.68242586 C2.33690079,9.51990502 1.98766024,9.70154596 1.7581593,9.85450676 C1.92779043,10.3803095 2.56640173,9.89274696 2.71607625,10.4663499 C2.28700929,10.4376698 1.92779043,10.47591 1.7581593,10.7244713 C2.10739986,10.7149112 2.44666211,10.7340313 2.55642343,10.9825926 C2.12735646,10.9539125 1.78809421,11.0208328 1.67833289,11.3363145 C1.96770364,11.623116 2.44666211,11.1451135 2.63624984,11.5083954 C2.27703098,11.4701552 1.7382027,11.6804763 1.91781213,11.9481577 C2.14731306,11.7665167 2.75598946,11.9003574 2.87572908,12.1202386 C2.61629324,12.1871589 1.77811591,11.9959579 1.67833289,12.4739604 C2.23711778,12.5122006 2.56640173,12.3018795 2.87572908,12.6460413 C2.46661871,12.8372423 1.7581593,12.4930805 1.59850648,13.0858036 C1.87789892,13.1909641 2.87572908,12.7416418 3.12518662,13.2578845 C2.62627154,13.2100842 2.3468791,13.4012852 2.00761684,13.5160058 C2.25707438,13.7167669 2.88570738,13.4873257 3.0453602,13.7741272 C1.91781213,13.4108453 1.86792062,14.519811 1.19937442,14.3859703 C0.600676324,15.2941751 -0.0878264829,17.2444252 0.95989518,18.0570295 L0.939938577,18.0761496 Z M4.06314696,9.07058268 C4.04319036,10.3133891 4.14297337,11.7282765 4.22279979,12.7416418 C4.53212714,13.7550071 5.5998054,14.6823319 5.66965351,15.9729386 C5.76943653,17.8180282 4.23277809,18.8887538 2.3867923,18.16219 C2.19720457,17.6077071 1.64839799,16.9958639 1.18939612,17.0245441 C1.30913573,17.2731054 1.7382027,17.6459473 1.66835459,17.8084682 C1.51868007,17.770228 1.46878856,17.6172672 1.26922253,17.6363873 C2.72605455,19.6726779 6.27832991,18.9939143 8.1642289,17.8945086 C8.89264491,17.8180282 9.33169018,17.4165061 10.0102147,17.2826654 C9.87051847,16.5561016 9.30175528,17.2826654 8.72301379,17.1105845 C8.8028402,16.5561016 9.71086564,16.9098235 9.84058356,16.4127009 C9.4514298,16.0780992 8.98244963,16.8620232 8.64318737,16.5847818 C8.7928619,15.848658 10.0501279,16.2023798 9.92040997,15.6192168 C9.69090904,15.284615 9.30175528,15.9824987 9.04231944,15.6192168 C9.28179867,15.3228552 9.93038827,15.4853761 10.0002364,15.0073736 C9.69090904,14.6823319 9.08223264,15.3993356 8.88266661,14.9213331 C9.25186377,14.6249716 10.1898241,14.9404532 10.3295203,14.3955304 C10.2297373,14.2903698 9.35164678,14.5484912 9.13212415,14.3094899 C9.4614081,13.9079679 10.5191081,14.3094899 10.7386307,13.7836872 C10.3394986,13.7263269 9.72084394,13.8984078 9.4614081,13.6976468 C9.90045337,13.2292043 10.848392,13.8410475 11.1477411,13.2578845 C10.6188911,13.1144837 10.1698675,13.4012852 9.54123451,13.171844 C9.74080055,12.598241 11.0180231,13.2100842 11.3073939,12.7320817 C10.7885222,12.3305596 10.1499109,12.7990021 9.4614081,12.7320817 C9.76075715,12.1393587 11.0379797,12.39748 11.3872203,12.1202386 C10.5889562,11.7856368 9.95034488,12.4166001 9.4614081,12.1202386 C10.0002364,11.8621172 10.6887392,11.7665167 11.3073939,11.5944358 C10.8084788,11.0877532 9.73082224,11.814317 9.4614081,11.5083954 C10.0002364,11.3076343 10.5290864,11.0973132 11.3073939,11.1546735 C10.8883052,10.3898695 9.78071375,11.4127949 9.22192886,11.0686331 C9.77073545,10.7627115 10.6787609,10.8487519 11.0679147,10.3707494 C10.3794118,10.2369088 9.79069205,10.6575509 9.30175528,10.4567899 C9.73082224,10.1126281 10.6288694,10.2655889 10.9880882,9.84494671 C10.4193251,9.44342462 9.59112602,10.0170276 9.22192886,9.67286582 C9.59112602,9.37650427 10.5191081,9.32870402 11.0679147,9.50078492 C10.5889562,8.75510104 9.20197226,9.34782412 8.74297039,9.14706308 C8.95251472,8.62126034 10.0002364,9.00366233 10.3494769,8.62126034 C9.77073545,8.31533875 8.95251472,8.94630203 8.74297039,8.44917945 C9.11216755,7.93293676 10.0700845,8.10501765 10.6687826,8.27709855 C8.70305718,7.18725288 6.17854689,8.95586208 4.09308187,9.06102263 L4.06314696,9.07058268 Z M10.4791949,15.7148173 C10.8384137,13.936648 13.7321212,12.7129616 14.5702985,11.9577177 C12.5646599,12.8659224 10.2796288,13.8123674 10.319542,16.6803823 C12.0956797,19.500597 15.3685626,15.9442585 17.2145484,15.3706555 C18.5516408,15.8104178 20.5971926,15.466256 21.5451313,16.3362205 C21.1759341,16.8333431 20.3178002,17.2731054 19.5394927,17.0341041 C20.2579304,16.9958639 19.7989285,17.0819044 19.6193191,16.7759828 C20.2479521,16.823783 20.6969756,16.6708222 20.90652,16.25018 C20.3277785,16.2693001 19.3000134,16.6134619 18.9807078,16.3362205 C19.2601002,16.2214999 19.9885162,16.3362205 20.2579304,15.9824987 C19.4995795,15.9442585 18.0227908,16.049419 17.3742012,15.8964582 C17.5238758,16.3266604 16.8852645,16.0207389 16.6557635,16.25018 C17.0050041,16.3362205 17.3941578,16.3840207 17.6136805,16.6039019 C17.2145484,16.5465416 16.7954597,16.4987413 16.4162843,16.431821 C16.406306,16.7951029 16.8952428,16.6039019 16.9750692,16.8715833 C16.4961107,16.9385036 16.3963277,16.6517021 16.0171522,16.8715833 C16.4262626,17.0341041 16.9151994,17.1201446 17.2145484,17.397386 C16.4961107,17.3495858 15.6479551,16.6612622 14.9694306,17.1392647 C16.3264796,17.4260662 17.4739842,18.4489915 19.0605342,18.1908702 C20.2479521,17.9996692 21.4852615,17.6172672 22.3433954,16.7951029 C22.0739813,15.8390979 21.2856954,15.4471359 20.3377568,15.2176947 C20.4574964,15.2176947 20.9963247,15.2463748 20.7368889,15.1316542 C20.4974096,15.0551738 20.1182342,15.2559349 20.0982776,15.1316542 C20.2279955,14.892653 20.7368889,15.0647339 20.7368889,14.6918919 C20.3676917,14.4146505 19.8089068,14.892653 19.449688,14.6058515 C19.6891672,14.510251 19.9785379,14.4815708 20.1681257,14.3477301 C19.8687766,14.2903698 19.3698615,14.4624507 19.2102087,14.2616897 C19.3898181,14.0513686 19.8687766,14.1660892 20.0882993,14.0035684 C19.8388417,13.6402865 19.1403606,14.0131284 18.8909031,13.8314875 C19.1902521,13.7836872 19.3898181,13.6211664 19.7689936,13.6594066 C19.6891672,13.0475634 18.6214889,13.6116063 18.491771,13.4873257 C18.5815757,13.1431639 19.1104257,13.2961247 19.2900351,13.0475634 C18.9407946,12.7129616 18.4817927,13.1240438 18.1724654,12.9615229 C18.3720314,12.7416418 18.7312502,12.6938415 19.1303823,12.7034016 C18.8909031,12.0437582 18.1026172,12.789442 17.9329861,12.7034016 C18.0826606,12.4548403 18.4518578,12.4452802 18.5715974,12.1775989 C18.0427474,11.9768378 17.8132465,12.5791209 17.5338541,12.3496797 C17.7334201,12.0724383 18.192422,12.0724383 18.4119446,11.823877 C17.6735503,11.9099175 17.134722,11.8907974 16.3264796,12.0819984 C14.9394957,12.40704 13.9416655,13.4012852 13.2830976,13.3056847 C12.1455712,14.0609287 10.1798458,15.2463748 11.1178062,17.1488247 C10.3993684,17.2348652 10.3594552,16.3266604 10.4791949,15.7530575 L10.4791949,15.7148173 Z M2.22835949,14.8448527 C2.22835949,14.9882535 2.47504728,14.892653 2.49747345,15.0169336 C2.41898188,15.1125341 2.161081,15.0456138 2.22835949,15.275055 C2.65445659,15.475816 2.27321182,15.3515354 2.22835949,15.7148173 C2.57596502,15.6765771 2.94599671,15.6478969 3.21511066,15.5427364 C3.08055369,15.1794545 3.21511066,14.5484912 2.7665874,14.4911309 C2.67688275,14.6918919 2.161081,14.4911309 2.22835949,14.8448527 Z M3.34470925,15.1179376 C3.36866121,15.4088957 3.27285338,15.82455 3.5363249,15.8868982 C3.65608468,15.5959401 4.82973051,15.4088957 4.11117184,14.9308932 C4.08721988,15.2218512 3.65608468,15.0971549 3.34470925,15.1179376 Z M2.49166629,16.4127009 C2.22415037,15.9442585 1.91547817,15.4949361 1.50391522,15.1029741 C1.46275893,15.7434974 1.50391522,16.3266604 2.49166629,16.4127009 Z M3.90349414,16.0589791 C3.26488284,16.0589791 3.31477435,16.2597401 2.78592436,16.0589791 C2.10739986,17.3113456 3.95338565,17.9423089 4.47225733,17.0245441 C4.20284318,17.0819044 3.72388471,17.3687059 3.43451396,17.1105845 C3.97334225,17.0245441 4.2826696,16.6995024 4.47225733,16.24062 C4.18288658,16.3649006 3.86358093,16.9098235 3.43451396,16.5943418 C3.77377622,16.2884202 4.62193185,16.0876592 4.3126045,15.3706555 C4.3325611,15.7721776 4.02323376,15.8104178 3.91347244,16.0685391 L3.90349414,16.0589791 Z M3.34470925,15.6113045 L3.34470925,16.4297093 C3.86441246,16.3854712 4.34253941,16.296995 4.34253941,15.6113045 C3.76047182,15.7661378 3.63574305,15.2352806 3.34470925,15.6113045 Z M2.21611794,17.1870649 C2.69118523,16.6740866 1.63141974,16.5108663 1.33907064,16.2310599 C1.43042973,16.6974038 1.79586611,16.9655516 2.21611794,17.1870649 Z M19.6891672,17.6268272 C19.8288634,19.1643874 17.3941578,18.537974 17.4440493,17.8830873 C17.5039192,17.1143071 19.3000134,18.537974 19.6891672,17.6268272 Z M21.7746322,16.3171004 C21.8644369,16.3075403 21.9143284,16.3362205 21.934285,16.4031408 C22.0240898,17.1201446 20.9863464,17.3495858 20.3277785,17.5407868 C20.7269106,17.0436642 21.5451313,17.005424 21.7746322,16.3171004 Z M16.5659588,14.3094899 C16.0171522,14.8639728 14.9694306,14.9117731 14.4006674,15.5331763 C14.6102117,14.5676113 15.7178032,14.5771713 16.5659588,14.3094899 Z M16.1668267,13.6976468 C15.777673,14.2712497 14.8496909,14.2425696 14.4006674,14.7492522 C14.2809278,13.9653282 15.5282154,13.9557681 16.1668267,13.6976468 Z M16.0870003,13.3439249 C15.248823,13.4012852 14.7000164,14.2043294 14.0813617,14.2138895 C14.3507759,13.5924862 15.4583673,12.980643 16.0870003,13.3439249 Z M16.0870003,12.5600008 C15.2687796,12.9519629 14.5004504,13.3917252 13.7620561,13.8697277 C14.0214919,12.8754825 15.0791919,12.7416418 16.0870003,12.5600008 Z M12.7243127,7.31153352 C12.8240957,7.68437547 11.9559835,7.75129581 11.8462222,8.18149805 C11.9859184,8.3440189 12.6145514,7.78953601 12.8839655,8.2675385 C12.4149854,8.1910581 12.1755061,8.37269905 12.005875,8.62126034 C12.1854844,8.96542213 12.7243127,8.4204993 13.2032712,8.53521989 C13.1034882,9.00366233 12.2852674,8.69774074 12.2453542,9.23310353 C12.7043561,9.40518442 13.1833146,8.72642089 13.2830976,9.31914397 C12.834074,9.30002387 12.4449203,9.33826407 12.3251806,9.67286582 C12.5147684,9.84494671 12.9637919,9.39562437 13.2830976,9.67286582 C12.9937269,9.90230701 12.205441,9.74934621 12.0857014,10.3707494 C12.4948118,10.3803095 12.9039221,10.0170276 13.2032712,10.1986686 C12.9837485,10.5428303 12.3551156,10.4472298 12.3251806,10.9825926 C11.7663958,10.6575509 11.806309,9.74934621 12.0857014,9.31914397 C11.7165043,9.08014273 11.7763741,8.3822591 11.4470901,8.0954576 C11.6666127,7.60789507 12.2453542,7.51229457 12.7243127,7.31153352 Z M12.8839655,6.69969034 C12.4449203,7.10121243 11.6865693,7.13945263 11.3572854,7.66525537 C11.277459,7.03429208 12.1655278,6.75705064 12.8839655,6.69969034 Z M12.2453542,6.25992805 C11.7863524,6.4931 11.2874373,7.16929864 10.9581533,7.21593303 C10.9880882,6.37651402 11.676591,6.39983122 12.2453542,6.25992805 Z M12.005875,5.64892849 C11.5069599,5.84632742 11.3373288,6.44891364 10.8084788,6.59436548 C10.8284354,5.87749567 11.5867863,5.57620257 12.005875,5.64892849 Z M11.7663958,4.95020123 C11.3872203,5.32304317 10.9681316,5.64808487 10.648826,6.08784716 C10.3095637,5.54292432 11.1976326,5.06492183 11.7663958,4.95020123 Z" id="å½¢çŠ¶" fill="#000000"></path>
        </g>
    </g>
</svg>